<?xml version="1.0" standalone="no"?>
<!DOCTYPE svg PUBLIC "-//W3C//DTD SVG 20010904//EN"
 "http://www.w3.org/TR/2001/REC-SVG-20010904/DTD/svg10.dtd">
<svg version="1.0" xmlns="http://www.w3.org/2000/svg"
 width="255.000000pt" height="253.000000pt" viewBox="0 0 255.000000 253.000000"
 preserveAspectRatio="xMidYMid meet">

<g transform="translate(0.000000,253.000000) scale(0.100000,-0.100000)"
fill="#FFFF00" stroke="none">
<path d="M310 2400 l0 -130 300 0 300 0 150 -301 150 -300 0 -128 c0 -85 -4
-131 -12 -139 -9 -9 -156 -12 -600 -12 l-588 0 0 -444 c0 -360 3 -446 13 -455
10 -8 303 -12 1043 -13 l1029 -3 3 -129 c2 -97 -1 -131 -10 -138 -7 -4 -472
-8 -1033 -8 -561 0 -1026 0 -1032 0 -10 0 -13 -27 -13 -100 l0 -100 1200 0
1200 0 0 400 c0 313 -3 400 -12 400 -7 0 -472 1 -1033 3 l-1020 2 -3 137 -3
138 591 0 590 0 0 304 0 304 131 263 c73 145 141 276 151 292 l19 27 295 0
294 0 0 130 0 130 -1050 0 -1050 0 0 -130z"/>
</g>
</svg>
