<?xml version="1.0" standalone="no"?>
<!DOCTYPE svg PUBLIC "-//W3C//DTD SVG 20010904//EN"
 "http://www.w3.org/TR/2001/REC-SVG-20010904/DTD/svg10.dtd">
<svg version="1.0" xmlns="http://www.w3.org/2000/svg"
 width="624.000000pt" height="497.000000pt" viewBox="0 0 624.000000 497.000000"
 preserveAspectRatio="xMidYMid meet">

<g transform="translate(0.000000,497.000000) scale(0.100000,-0.100000)"
fill="#00C" stroke="none">
<path d="M3804 4503 c3 -54 10 -231 16 -393 6 -162 15 -303 21 -312 5 -10 9
-77 9 -149 0 -71 4 -138 9 -147 5 -9 10 -141 12 -292 l4 -275 -27 -3 c-24 -3
-28 1 -37 35 -6 21 -13 58 -17 83 -4 25 -14 55 -22 68 -8 12 -12 25 -9 28 3 3
2 16 -3 29 -5 13 -14 61 -20 107 -6 45 -17 92 -24 103 -7 11 -18 56 -25 99
-18 109 -17 108 -60 100 -68 -12 -79 -49 -41 -139 4 -11 18 -58 30 -105 12
-47 30 -101 40 -120 10 -19 21 -57 25 -85 4 -27 17 -72 30 -100 13 -27 26 -69
30 -92 5 -35 4 -42 -13 -47 -44 -14 -42 -17 -333 562 -67 133 -126 245 -131
248 -5 4 -18 25 -29 48 -11 22 -27 55 -36 71 -8 17 -23 44 -31 60 -16 32 -39
78 -56 110 -5 11 -29 58 -53 105 -100 197 -126 240 -144 240 -17 0 -139 -60
-166 -82 -21 -17 -15 -58 15 -97 15 -20 36 -52 46 -71 11 -19 28 -46 38 -60
64 -84 88 -120 88 -130 0 -6 22 -39 49 -73 26 -35 52 -74 56 -88 4 -13 20 -40
34 -59 25 -33 73 -103 96 -139 27 -43 73 -120 90 -151 10 -19 40 -63 67 -96
26 -34 48 -67 48 -74 0 -6 9 -24 20 -38 58 -76 90 -123 90 -133 0 -6 13 -28
28 -48 47 -60 92 -131 92 -145 0 -17 -21 -36 -40 -36 -19 0 -340 332 -340 352
0 19 -102 118 -121 118 -17 0 -69 -50 -69 -67 0 -6 105 -111 233 -233 127
-122 232 -229 232 -237 0 -9 -8 -21 -17 -26 -21 -14 -89 18 -170 80 -32 24
-73 50 -92 58 -18 8 -47 25 -62 38 -29 24 -96 68 -146 97 -15 8 -62 39 -103
68 -42 28 -81 52 -88 52 -7 0 -34 18 -62 40 -27 22 -54 40 -59 40 -11 0 -65
36 -134 88 -24 17 -48 32 -54 32 -5 0 -27 13 -47 29 -20 15 -49 36 -66 45 -41
22 -64 37 -103 64 -91 65 -166 112 -178 112 -7 0 -16 5 -19 10 -12 19 -24 10
-58 -42 -42 -65 -67 -116 -67 -137 0 -10 38 -35 108 -70 59 -29 136 -71 172
-92 36 -22 72 -42 80 -45 19 -7 68 -31 100 -48 14 -8 97 -49 185 -92 88 -43
172 -86 187 -96 14 -10 33 -18 41 -18 8 0 38 -16 66 -35 28 -19 57 -35 64 -35
7 0 28 -11 47 -25 19 -14 41 -25 50 -25 8 0 31 -11 50 -24 19 -13 60 -34 90
-46 30 -13 62 -29 70 -36 9 -8 35 -20 58 -28 49 -17 91 -46 92 -62 0 -17 -35
-44 -58 -44 -11 0 -36 8 -54 19 -18 10 -62 24 -97 31 -35 6 -74 18 -85 25 -12
8 -55 21 -96 31 -41 9 -84 21 -95 27 -27 15 -144 48 -175 50 -22 2 -25 -3 -31
-43 -10 -66 4 -75 141 -94 63 -10 124 -23 135 -30 11 -7 46 -16 79 -20 62 -8
166 -33 176 -42 3 -3 -4 -12 -15 -20 -16 -12 -215 -14 -1360 -14 -737 0 -1346
0 -1352 0 -10 0 -13 -26 -13 -95 0 -69 3 -95 13 -95 6 0 616 0 1353 0 738 0
1349 -3 1358 -6 35 -14 5 -53 -40 -53 -36 1 -159 -23 -184 -36 -32 -16 -60
-22 -151 -35 -41 -5 -91 -18 -111 -27 -35 -17 -37 -20 -32 -53 10 -58 24 -66
85 -47 28 9 59 17 68 17 9 0 32 8 51 19 19 10 71 26 115 36 44 9 87 23 96 31
8 8 46 20 85 28 38 8 88 20 112 27 40 11 45 10 65 -10 l22 -22 -28 -25 c-15
-13 -40 -27 -55 -30 -15 -4 -38 -14 -52 -24 -14 -9 -81 -44 -150 -78 -69 -34
-159 -80 -200 -103 -120 -65 -368 -189 -378 -189 -6 0 -44 -23 -85 -50 -41
-27 -81 -50 -90 -50 -8 0 -31 -11 -51 -25 -20 -14 -40 -25 -44 -25 -13 0 -216
-103 -241 -122 -13 -10 -31 -18 -41 -18 -9 0 -25 -9 -35 -20 -17 -19 -17 -21
6 -67 13 -27 37 -68 53 -92 26 -39 31 -42 60 -37 17 4 47 20 67 36 20 16 56
39 80 52 24 12 71 41 103 63 32 22 76 50 97 62 20 13 72 47 114 78 42 30 81
55 86 55 5 0 35 20 66 44 32 24 81 56 110 72 28 16 82 50 120 75 37 25 100 67
140 92 39 26 75 51 78 57 3 5 13 10 22 10 9 0 51 27 95 60 43 33 82 60 88 60
5 0 26 11 46 25 42 28 61 29 78 2 12 -20 30 -1 -303 -318 l-174 -166 34 -31
c19 -17 41 -32 49 -32 19 0 180 160 180 179 0 18 262 291 280 291 9 0 26 -7
38 -15 21 -15 21 -17 5 -43 -10 -15 -39 -55 -65 -88 -27 -34 -48 -68 -48 -76
0 -9 -16 -35 -35 -59 -19 -24 -35 -49 -35 -54 0 -6 -22 -42 -50 -80 -27 -39
-56 -83 -64 -100 -7 -16 -28 -47 -45 -69 -17 -21 -31 -44 -31 -50 -1 -6 -14
-27 -30 -46 -17 -19 -30 -38 -30 -42 0 -4 -25 -44 -55 -88 -30 -44 -55 -84
-55 -89 0 -5 -23 -39 -51 -77 -28 -38 -57 -82 -64 -99 -7 -16 -29 -50 -49 -75
-20 -25 -36 -49 -36 -53 0 -11 -66 -117 -102 -164 -16 -20 -28 -41 -28 -48 0
-15 94 -85 113 -85 7 0 22 -7 33 -15 26 -19 48 -19 67 3 8 9 96 177 194 372
99 195 259 513 357 707 98 193 185 354 194 358 9 3 23 -2 33 -12 15 -16 16
-25 7 -73 -6 -30 -16 -62 -23 -70 -6 -8 -20 -51 -30 -95 -9 -44 -23 -89 -30
-100 -7 -11 -17 -40 -23 -65 -20 -83 -35 -135 -43 -155 -39 -87 -27 -118 41
-113 l45 3 15 85 c8 47 20 94 27 105 9 16 32 136 47 242 2 13 8 28 13 35 6 7
13 33 17 58 4 25 11 62 17 83 8 32 14 37 39 37 16 0 31 -3 33 -7 2 -5 -3 -165
-10 -358 -8 -192 -16 -422 -19 -510 -3 -87 -9 -164 -13 -170 -5 -5 -12 -138
-16 -295 -3 -157 -7 -289 -8 -295 -1 -6 44 -11 115 -13 l118 -3 -6 198 c-4
134 -10 208 -19 228 -10 22 -18 163 -30 550 -8 286 -15 555 -15 598 l0 78 28
-3 c24 -3 28 -9 40 -63 8 -33 15 -69 16 -80 5 -32 17 -78 26 -100 11 -26 16
-48 43 -200 7 -38 18 -80 25 -92 7 -12 15 -43 19 -68 3 -26 12 -49 18 -52 7
-2 29 3 50 11 35 15 37 18 31 48 -20 104 -50 214 -63 229 -6 8 -16 43 -23 78
-6 35 -22 87 -36 116 -13 30 -24 62 -24 72 0 10 -7 38 -16 62 -14 42 -14 45 5
64 11 11 26 17 35 14 16 -6 51 -69 97 -172 15 -33 43 -87 62 -120 19 -33 88
-166 153 -295 64 -129 128 -248 141 -263 12 -16 23 -36 23 -45 0 -9 14 -37 30
-61 17 -24 30 -52 30 -61 0 -10 9 -29 20 -43 11 -14 27 -45 35 -68 9 -24 21
-50 29 -59 7 -8 23 -40 35 -70 13 -30 31 -64 41 -75 10 -11 27 -41 38 -68 18
-41 25 -47 50 -47 16 0 40 8 53 18 13 11 45 31 72 46 65 38 64 45 -25 174 -27
38 -48 71 -48 75 0 8 -54 88 -97 145 -18 24 -33 48 -33 53 0 5 -23 41 -51 80
-27 39 -54 81 -59 93 -4 12 -19 35 -33 52 -24 29 -67 94 -97 146 -8 15 -36 58
-61 95 -55 82 -108 165 -134 213 -10 19 -40 64 -67 99 -26 35 -48 68 -48 74 0
5 -16 31 -35 57 -19 26 -35 54 -35 62 0 17 20 38 35 38 6 0 111 -106 234 -235
124 -131 231 -235 240 -235 23 0 61 41 61 66 0 21 -127 154 -148 154 -19 0
-322 292 -322 310 0 20 19 40 38 40 8 0 44 -20 81 -43 36 -24 73 -47 83 -50 9
-3 52 -33 96 -66 43 -34 85 -61 93 -61 8 0 38 -18 68 -40 29 -22 57 -40 62
-40 6 0 34 -18 63 -39 29 -22 68 -47 87 -58 19 -10 50 -30 69 -44 19 -15 49
-34 65 -43 62 -34 122 -72 158 -98 85 -64 106 -78 116 -78 6 0 38 -20 70 -45
33 -25 75 -52 93 -60 18 -9 58 -33 88 -55 30 -22 66 -40 81 -40 27 0 49 16 49
37 0 6 18 38 40 69 22 32 40 63 40 70 0 7 -57 41 -127 76 -158 79 -156 78
-260 132 -16 8 -39 19 -53 26 -14 6 -52 26 -85 45 -33 19 -112 60 -175 91 -63
31 -122 60 -130 65 -8 5 -35 19 -60 30 -25 12 -52 26 -60 30 -8 5 -31 16 -50
25 -19 9 -46 22 -60 30 -14 7 -49 25 -77 39 -29 13 -85 44 -125 68 -40 24 -99
56 -131 72 -71 35 -81 46 -63 70 13 19 17 18 132 -9 66 -16 135 -37 154 -48
19 -10 44 -18 55 -18 25 0 114 -27 129 -39 12 -9 117 -36 129 -33 4 1 16 -2
27 -8 10 -5 26 -7 34 -4 23 9 22 86 -1 106 -11 8 -69 22 -138 32 -66 10 -131
24 -145 32 -22 12 -66 22 -225 50 -16 3 -39 9 -50 14 -11 5 -29 10 -39 12 -28
4 -44 34 -30 56 10 14 26 17 110 16 55 -1 163 -2 241 -2 97 -1 150 -5 165 -14
22 -12 200 -21 843 -41 88 -2 190 -8 228 -12 47 -5 67 -4 67 4 1 6 1 54 1 106
0 52 0 100 -1 106 0 7 -44 9 -142 4 -79 -3 -201 -9 -273 -12 -71 -3 -269 -11
-440 -17 -216 -8 -317 -15 -333 -24 -14 -8 -66 -13 -150 -14 -70 0 -167 -1
-216 -2 -73 -1 -91 2 -99 16 -14 22 16 58 49 58 13 0 25 4 28 9 3 5 20 11 38
14 146 26 207 39 229 52 14 8 34 14 45 14 27 1 226 37 247 46 23 10 22 40 -4
81 -16 27 -24 32 -38 25 -9 -5 -46 -15 -81 -21 -36 -6 -70 -16 -76 -21 -15
-12 -103 -39 -129 -39 -11 0 -33 -7 -50 -16 -42 -23 -222 -72 -267 -74 -10 0
-22 9 -28 20 -9 17 -1 25 66 70 42 27 80 50 83 50 12 0 216 104 240 122 13 10
31 18 41 18 9 0 37 13 61 30 24 16 50 30 57 30 7 0 31 14 54 30 22 17 48 30
58 30 9 0 20 4 26 9 13 13 247 131 260 131 5 0 25 11 44 25 19 14 40 25 48 25
7 0 28 11 45 24 18 12 102 58 187 100 85 42 160 84 167 92 14 19 3 54 -33 101
-13 17 -24 38 -24 46 0 8 -9 22 -20 32 -26 24 -54 15 -129 -40 -33 -25 -66
-45 -71 -45 -9 0 -58 -33 -132 -90 -14 -11 -33 -20 -41 -20 -9 0 -19 -4 -22
-10 -6 -10 -201 -140 -271 -181 -23 -13 -76 -48 -119 -77 -43 -30 -88 -58
-101 -62 -13 -5 -53 -32 -89 -60 -35 -27 -70 -50 -76 -50 -6 0 -43 -24 -83
-53 -39 -30 -82 -60 -96 -67 -14 -7 -55 -33 -92 -57 -76 -50 -111 -54 -116
-13 -2 21 23 50 152 173 86 81 162 147 169 147 21 0 147 133 147 156 0 24 -39
64 -62 64 -9 0 -117 -106 -239 -235 -189 -199 -228 -235 -249 -233 -36 4 -37
34 -1 78 17 22 31 44 31 51 0 7 6 20 14 28 27 32 86 121 86 131 0 5 20 36 44
67 24 32 52 74 62 94 21 40 63 104 105 159 14 19 30 46 34 59 4 14 30 53 56
88 27 34 49 67 49 73 0 10 57 96 90 135 10 11 26 36 36 55 16 31 62 109 89
151 32 50 109 168 126 191 33 46 25 62 -53 115 -83 55 -98 62 -115 56 -7 -3
-96 -172 -198 -376 -103 -205 -204 -401 -226 -436 -21 -34 -39 -69 -39 -75 0
-7 -13 -33 -30 -57 -16 -24 -30 -48 -30 -54 0 -15 -203 -427 -223 -452 -13
-17 -42 -16 -56 1 -12 14 -11 17 19 134 5 20 18 55 29 77 11 22 25 70 31 105
6 36 17 72 24 80 7 8 18 42 25 75 7 33 19 81 27 107 8 26 14 54 14 62 0 20
-31 36 -68 36 -27 0 -30 -3 -36 -46 -3 -25 -12 -58 -21 -72 -8 -15 -19 -56
-25 -92 -5 -36 -12 -74 -15 -85 -3 -11 -7 -36 -11 -55 -3 -19 -9 -44 -14 -55
-9 -22 -21 -68 -26 -100 -1 -11 -8 -47 -16 -80 -12 -54 -16 -60 -40 -63 l-28
-3 0 88 c0 48 7 349 15 668 13 462 19 586 31 610 11 23 14 63 12 165 l-3 135
-118 3 -118 3 5 -98z"/>
</g>
</svg>
